<svg id="_x33_0" enable-background="new 0 0 64 64" height="512" viewBox="0 0 64 64" width="512" xmlns="http://www.w3.org/2000/svg"><g><path d="m32 21c-2.243 0-4 1.318-4 3s1.757 3 4 3 4-1.318 4-3-1.757-3-4-3zm0 4c-1.221 0-2-.592-2-1s.779-1 2-1 2 .592 2 1-.779 1-2 1z"/><path d="m27.707 14.293-1.414 1.414 1.293 1.293-1.293 1.293 1.414 1.414 2.707-2.707z"/><path d="m36.293 14.293-2.707 2.707 2.707 2.707 1.414-1.414-1.293-1.293 1.293-1.293z"/><path d="m56.886 28.927c.076-.304.114-.614.114-.927 0-2.206-1.794-4-4-4-1.558 0-2.945.908-3.601 2.26l-8.429-1.686c.016-.189.03-.38.03-.574v-1c2.206 0 4-1.794 4-4 0-.79-.238-1.523-.635-2.145.415-1.64.635-3.324.635-5.017 0-.603-.058-1.203-.156-1.793.091-.335.156-.681.156-1.045 0-3.295-3.069-7.426-3.2-7.6l-.8-1.067-.8 1.067c-.037.05-.318.43-.695 1.013-1.624-.924-3.45-1.413-5.343-1.413h-4.324c-5.976 0-10.838 4.862-10.838 10.838 0 1.693.22 3.377.635 5.017-.397.622-.635 1.355-.635 2.145 0 2.206 1.794 4 4 4v1c0 .194.014.385.029.575l-8.429 1.686c-.655-1.353-2.042-2.261-3.6-2.261-2.206 0-4 1.794-4 4 0 .313.038.623.114.927-1.307.927-2.114 2.443-2.114 4.073 0 2.601 1.996 4.744 4.537 4.979.701 1.232 2.017 2.021 3.463 2.021 2.206 0 4-1.794 4-4 0-.271-.027-.54-.082-.803l8.52-5.899c.635.547 1.368.979 2.17 1.272l-.431 1.632c-7.197 2.073-12.177 8.628-12.177 16.167v14.631h28v-4.002c.017 0 .033.002.05.002 3.281 0 5.95-2.669 5.95-5.95v-4.681c0-7.539-4.98-14.094-12.176-16.168l-.431-1.632c.802-.293 1.535-.725 2.17-1.272l8.52 5.899c-.056.264-.083.533-.083.804 0 2.206 1.794 4 4 4 1.445 0 2.761-.789 3.463-2.021 2.541-.234 4.537-2.378 4.537-4.979 0-1.63-.807-3.146-2.114-4.073zm-13.907-16.472c-.033.979-.138 1.952-.326 2.913-.505-.231-1.062-.368-1.653-.368v-2c.723 0 1.393-.208 1.979-.545zm-1.979 8.545v-4c1.103 0 2 .897 2 2s-.897 2-2 2zm.001-17.214c.891 1.434 1.999 3.594 1.999 5.214 0 1.103-.897 2-2 2s-2-.897-2-2c0-1.615 1.109-3.778 2.001-5.214zm-11.163-.786h4.324c1.535 0 3.007.411 4.324 1.155-.76 1.447-1.486 3.243-1.486 4.845 0 .758.224 1.46.592 2.065l-.224.672c-1.68-.713-2.945-2.173-3.397-3.979l-1.941.485c.181.724.463 1.405.825 2.032l-.488 1.462c-1.68-.713-2.945-2.173-3.397-3.979l-1.94.485c.071.284.168.557.268.828-2.423.345-4.298 2.412-4.298 4.929v1c-.591 0-1.148.137-1.653.368-.227-1.162-.347-2.344-.347-3.53 0-4.873 3.965-8.838 8.838-8.838zm-8.838 16c0-1.103.897-2 2-2v4c-1.103 0-2-.897-2-2zm-6.505 15.441.333.756c.114.259.172.529.172.803 0 1.103-.897 2-2 2-.843 0-1.598-.542-1.878-1.347l-.246-.707-.747.037c-.058.003-.114.01-.129.017-1.654 0-3-1.346-3-3 0-1.166.691-2.234 1.761-2.723l.954-.437-.481-.933c-.156-.298-.234-.603-.234-.907 0-1.103.897-2 2-2 .95 0 1.774.676 1.96 1.607l.195.982 10.323-2.065c.172.442.385.862.639 1.255zm2.505 18.559h4v8h-4zm30-4.631v4.681c0 2.178-1.772 3.95-3.95 3.95-1.055 0-2.047-.411-2.793-1.157l-11.722-11.721c-.345-.346-.535-.805-.535-1.293 0-1.009.82-1.829 1.828-1.829.481 0 .952.195 1.293.536l1.465 1.464h1.414c.552 0 1 .449 1 1v1.618l2.553 1.276c2.388 1.194 4.359 3.166 5.553 5.553l1.789-.895c-.514-1.028-1.153-1.989-1.895-2.863v-3.689h-2v1.756c-.791-.635-1.643-1.196-2.553-1.651l-1.447-.723v-.382c0-1.654-1.346-3-3-3h-.586l-.879-.878c-.723-.724-1.683-1.122-2.707-1.122-2.11 0-3.828 1.717-3.828 3.829 0 1.022.398 1.983 1.121 2.707l11.722 11.722c.621.621 1.357 1.081 2.157 1.374v2.368h-18v-16h-2v6h-4v-2.631c0-6.535 4.245-12.231 10.418-14.156.876 1.694 2.629 2.787 4.582 2.787s3.707-1.093 4.582-2.786c6.173 1.925 10.418 7.621 10.418 14.155zm-12.045-15.408c-.465 1.225-1.636 2.039-2.955 2.039-1.318 0-2.489-.813-2.955-2.039l.524-1.983c.143.009.285.022.431.022h4c.146 0 .288-.013.431-.022zm-.955-3.961h-4c-2.757 0-5-2.243-5-5v-10c0-1.654 1.346-3 3-3h.334c1.067 1.449 2.612 2.517 4.423 2.97l.897.225.692-2.076c.95.873 2.108 1.526 3.41 1.852l.897.225.347-1.035v10.839c0 2.757-2.243 5-5 5zm20.042 7.001-.917-.055-.247.706c-.281.806-1.036 1.348-1.878 1.348-1.103 0-2-.897-2-2 0-.274.058-.544.172-.803l.333-.756-9.622-6.662c.254-.393.467-.813.639-1.255l10.323 2.065.195-.982c.186-.931 1.01-1.607 1.96-1.607 1.103 0 2 .897 2 2 0 .304-.078.609-.233.908l-.481.933.954.437c1.069.488 1.76 1.556 1.76 2.722 0 1.654-1.346 3-2.958 3.001z"/></g></svg>