<svg width="17" height="17" viewBox="0 0 17 17" fill="none" xmlns="http://www.w3.org/2000/svg">
<path d="M2.83333 12.75H14.1667C14.5562 12.75 14.875 12.4312 14.875 12.0417C14.875 11.6521 14.5562 11.3333 14.1667 11.3333H2.83333C2.44375 11.3333 2.125 11.6521 2.125 12.0417C2.125 12.4312 2.44375 12.75 2.83333 12.75ZM2.83333 9.20833H14.1667C14.5562 9.20833 14.875 8.88958 14.875 8.5C14.875 8.11042 14.5562 7.79167 14.1667 7.79167H2.83333C2.44375 7.79167 2.125 8.11042 2.125 8.5C2.125 8.88958 2.44375 9.20833 2.83333 9.20833ZM2.125 4.95833C2.125 5.34792 2.44375 5.66667 2.83333 5.66667H14.1667C14.5562 5.66667 14.875 5.34792 14.875 4.95833C14.875 4.56875 14.5562 4.25 14.1667 4.25H2.83333C2.44375 4.25 2.125 4.56875 2.125 4.95833Z" fill="url(#paint0_linear)"/>
<defs>
<linearGradient id="paint0_linear" x1="8.5" y1="4.25" x2="8.5" y2="12.75" gradientUnits="userSpaceOnUse">
<stop stop-color="#AB21FC"/>
<stop offset="1" stop-color="#29B6D3"/>
</linearGradient>
</defs>
</svg>
