<svg width="78" height="55" viewBox="0 0 78 55" fill="none" xmlns="http://www.w3.org/2000/svg">
<path d="M46.506 16.2649C45.3194 16.2649 44.1328 16.691 44.1328 17.6949V28.0391L39.2042 18.6381C38.0479 16.4171 37.4091 16.2649 35.7053 16.2649C34.5187 16.2649 33.3323 16.7213 33.3323 17.7253V37.0444C33.3323 38.018 34.5187 38.5048 35.7053 38.5048C36.8919 38.5048 38.0784 38.018 38.0784 37.0444V26.7003L43.8589 37.2271C44.4371 38.2919 45.4107 38.5049 46.5059 38.5049C47.6923 38.5049 48.8788 38.0182 48.8788 37.0446V17.6948C48.8788 16.691 47.6923 16.2649 46.506 16.2649Z" fill="url(#paint0_linear)"/>
<path d="M29.8342 20.4025C30.7469 20.4025 31.2642 19.4291 31.2642 18.3034C31.2642 17.3298 30.8381 16.2649 29.8342 16.2649H19.0032C17.9687 16.2649 16.9343 16.7516 16.9343 17.7253V37.0446C16.9343 38.0182 17.9687 38.5049 19.0032 38.5049H29.8342C30.8381 38.5049 31.2642 37.44 31.2642 36.4664C31.2642 35.3409 30.7469 34.3673 29.8342 34.3673H21.6806V29.1952H26.2442C27.2483 29.1952 27.6741 28.2217 27.6741 27.4003C27.6741 26.4267 27.1569 25.5443 26.2442 25.5443H21.6806V20.4025H29.8342Z" fill="url(#paint1_linear)"/>
<path d="M66.7481 27.4218L77.7053 4.35413C78.1536 3.41021 78.0871 2.30222 77.5287 1.41893C76.9702 0.53564 75.998 0 74.953 0H3.04687C1.36408 0 0 1.36408 0 3.04687V51.7968C0 53.4796 1.36408 54.8437 3.04687 54.8437H74.953C75.998 54.8437 76.9702 54.308 77.5286 53.4248C78.0869 52.5415 78.1536 51.4336 77.7051 50.4896L66.7481 27.4218ZM6.09374 48.7499V6.09374H70.1326L60.6227 26.1146C60.2298 26.9418 60.2298 27.9019 60.6227 28.7291L70.1326 48.7499H6.09374Z" fill="url(#paint2_linear)"/>
<defs>
<linearGradient id="paint0_linear" x1="41.1055" y1="16.2649" x2="41.1055" y2="38.5049" gradientUnits="userSpaceOnUse">
<stop stop-color="#AB21FC"/>
<stop offset="1" stop-color="#29B6D3"/>
</linearGradient>
<linearGradient id="paint1_linear" x1="24.0993" y1="16.2649" x2="24.0993" y2="38.5049" gradientUnits="userSpaceOnUse">
<stop stop-color="#AB21FC"/>
<stop offset="1" stop-color="#29B6D3"/>
</linearGradient>
<linearGradient id="paint2_linear" x1="39" y1="0" x2="39" y2="54.8437" gradientUnits="userSpaceOnUse">
<stop stop-color="#AB21FC"/>
<stop offset="1" stop-color="#29B6D3"/>
</linearGradient>
</defs>
</svg>
