<svg id="Layer_1" enable-background="new 0 0 511.476 511.476" height="512" viewBox="0 0 511.476 511.476" width="512" xmlns="http://www.w3.org/2000/svg"><g><path d="m337.75 312.115v-243.592c-3.485-91.365-135.805-91.362-139.286.001 0-.001 0 110.841 0 110.841s-33.567-58.004-33.567-58.004c-12.788-22.099-46.295-22.255-59.173 0l-33.227 57.416c-4.695 8.749 7.754 15.933 12.983 7.514 0 0 33.227-57.416 33.227-57.416 7.264-12.552 25.944-12.552 33.208 0 0 0 59.128 102.174 59.128 102.174 7.276 12.572-2.127 28.652-16.604 28.652h-118.256c-14.479 0-23.879-16.081-16.604-28.653 0 0 5.938-10.262 5.938-10.262 2.075-3.585.851-8.173-2.735-10.248-3.583-2.073-8.172-.851-10.248 2.735 0 0-5.938 10.261-5.938 10.261-12.811 22.134 3.874 51.166 29.585 51.166h118.256c1.36 0 2.702-.082 4.026-.233v37.649c-27.056 20.984-43.097 53.524-43.097 87.821-.64 96.472 118.551 147.711 189.121 82.025 3.058-2.791 3.273-7.535.48-10.594s-7.537-3.273-10.596-.48c-61.141 56.913-164.556 12.614-164.005-70.953-.001-30.784 14.946-59.935 39.981-77.979 1.956-1.41 3.115-3.674 3.115-6.084v-46.884c14.451-9.68 19.306-30.342 10.561-45.453l-10.561-18.25v-136.762c0-29.763 24.513-53.976 54.644-53.976 30.13 0 54.643 24.213 54.643 53.976v11.777h-6.714c-4.142 0-7.5 3.358-7.5 7.5s3.358 7.5 7.5 7.5h6.714v24.411h-6.714c-4.142 0-7.5 3.358-7.5 7.5s3.358 7.5 7.5 7.5h6.714v24.411h-6.714c-4.142 0-7.5 3.358-7.5 7.5s3.358 7.5 7.5 7.5h6.714v24.411h-6.714c-4.142 0-7.5 3.358-7.5 7.5s3.358 7.5 7.5 7.5h6.714v24.411h-6.714c-4.142 0-7.5 3.358-7.5 7.5s3.358 7.5 7.5 7.5h6.714v24.411h-6.714c-4.142 0-7.5 3.358-7.5 7.5s3.358 7.5 7.5 7.5h6.714v23.516c0 2.411 1.159 4.675 3.115 6.084 36.534 25.652 50.458 76.904 31.508 117.321-1.709 3.773-.036 8.217 3.737 9.926 3.824 1.593 7.133.347 9.926-3.737 21.328-45.476 6.7-103.121-33.285-133.35z"/><path d="m294.734 69.402c-1.329-34.988-51.918-35.009-53.254 0v266.708c-69.996 29.406-49.181 132.122 26.629 132.882 75.815-.765 96.615-103.488 26.626-132.882v-266.708zm-38.254 0c0-6.298 5.216-11.422 11.627-11.422s11.627 5.124 11.627 11.422v90.785h-23.254zm66.351 330.534c-2.736 71.597-106.712 71.604-109.448-.001 0-22.018 13.332-41.653 33.964-50.019 5.548-2.249 9.133-7.553 9.133-13.513v-161.217h23.254v161.217c0 5.959 3.584 11.264 9.131 13.513 20.634 8.367 33.966 28.001 33.966 50.02z"/><path d="m255.308 368.828c-12.805 5.191-21.079 17.402-21.079 31.108 0 4.142 3.358 7.5 7.5 7.5s7.5-3.358 7.5-7.5c0-7.567 4.598-14.322 11.715-17.208 9.067-4 3.668-17.343-5.636-13.9z"/><path d="m142.81 153.384c0-4.142-3.358-7.5-7.5-7.5s-7.5 3.358-7.5 7.5v52.554c.3 9.899 14.692 9.924 15 0z"/><path d="m135.31 226.231c-9.652 0-9.668 15 0 15 9.651 0 9.667-15 0-15z"/><path d="m411.227 94.898-20.755-17.932c-2.773-2.399-7.033-2.399-9.807 0l-20.755 17.932c-3.134 2.708-3.48 7.444-.772 10.579s7.444 3.48 10.579.772l8.352-7.216v144.127c0 4.142 3.358 7.5 7.5 7.5s7.5-3.358 7.5-7.5v-144.127l8.352 7.216c3.632 2.668 7.158 2.41 10.579-.772 2.707-3.135 2.361-7.871-.773-10.579z"/><path d="m466.694 171.395-20.755-17.932c-2.773-2.399-7.033-2.399-9.807 0l-20.755 17.932c-3.134 2.708-3.48 7.444-.772 10.579 2.708 3.134 7.444 3.48 10.579.772l8.352-7.216v144.127c0 4.142 3.358 7.5 7.5 7.5s7.5-3.358 7.5-7.5v-144.128l8.352 7.216c3.632 2.668 7.158 2.41 10.579-.772 2.707-3.134 2.361-7.87-.773-10.578z"/></g></svg>