<svg width="73" height="66" viewBox="0 0 73 66" fill="none" xmlns="http://www.w3.org/2000/svg">
<path d="M36.493 28.9532C32.4772 28.9532 29.1916 32.2115 29.1916 36.1939C29.1916 40.1764 32.4772 43.4347 36.493 43.4347C40.5087 43.4347 43.7944 40.1764 43.7944 36.1939C43.7944 32.2115 40.5087 28.9532 36.493 28.9532ZM58.3972 36.1939C58.3972 23.3054 47.0435 13.0235 33.7549 14.6527C24.1901 15.8112 16.3046 23.3778 14.8443 32.827C13.6396 40.6108 16.6331 47.7068 21.8902 52.3771C23.6425 53.9338 26.3805 53.5718 27.5853 51.5444L27.6218 51.5082C28.4979 49.9876 28.1329 48.1412 26.8186 46.9465C23.0584 43.5795 21.014 38.3662 22.3647 32.6822C23.5695 27.5412 27.7678 23.3778 32.9518 22.1469C42.5166 19.866 51.0958 27.0344 51.0958 36.1939C51.0958 40.466 49.1974 44.2674 46.2403 46.9103C44.9261 48.0688 44.5245 49.9514 45.4007 51.472L45.4372 51.5082C46.5689 53.427 49.1974 54.0062 50.9132 52.5219C55.4766 48.5395 58.3972 42.7106 58.3972 36.1939ZM32.2216 0.243519C15.3554 2.12612 1.73827 15.9198 0.168472 32.6822C-1.10927 46.0776 4.9874 58.0973 14.8443 65.3018C16.5966 66.569 19.0791 66.0259 20.1743 64.1795C21.087 62.6228 20.6854 60.5953 19.2251 59.5092C10.9015 53.3908 5.90008 43.0365 7.68892 31.6323C9.6603 18.9609 20.3204 8.86004 33.1708 7.44809C50.7672 5.45687 65.6986 19.1057 65.6986 36.1939C65.6986 45.788 60.9892 54.2235 53.7608 59.5092C52.3005 60.5953 51.8989 62.5866 52.8116 64.1795C53.9068 66.0621 56.3893 66.569 58.1416 65.3018C67.1589 58.7127 73 48.1412 73 36.1939C73 14.7975 54.2719 -2.25455 32.2216 0.243519Z" fill="url(#paint0_linear)"/>
<defs>
<linearGradient id="paint0_linear" x1="36.5" y1="0" x2="36.5" y2="66" gradientUnits="userSpaceOnUse">
<stop stop-color="#AB21FC"/>
<stop offset="1" stop-color="#29B6D3"/>
</linearGradient>
</defs>
</svg>
