<svg id="Capa_1" enable-background="new 0 0 512.011 512.011" height="512" viewBox="0 0 512.011 512.011" width="512" xmlns="http://www.w3.org/2000/svg"><g><g><path d="m433.281 43.947c-3.302-14.668-12.119-27.173-24.825-35.21-12.708-8.037-27.785-10.646-42.45-7.342l-8.212 1.848c-21.723 4.891-37.684 21.807-42.454 42.157-11.904-8.27-26.247-12.894-40.864-12.927-.008 0-.015 0-.023 0-5.512 0-9.987 4.462-10 9.978-.013 5.522 4.454 10.01 9.977 10.022 13.635.031 26.949 5.575 36.527 15.212 2.436 2.34 4.045 5.588 4.475 8.948 6.964 54.45 7.286 109.693.958 164.192-.461 3.968-2.47 7.49-5.657 9.919-3.207 2.445-7.168 3.454-11.154 2.84-7.832-1.205-13.25-8.317-12.336-16.192 3.801-32.762 5.102-66.087 3.865-99.048-.208-5.52-4.869-9.834-10.368-9.618-5.519.207-9.825 4.85-9.618 10.368.349 9.307.483 18.644.416 27.988-12.812 10.137-23.962 21.999-33.264 35.373l-88.165-53.835c14.325-21.625 31.624-41.004 51.543-57.697 4.233-3.547 4.789-9.854 1.241-14.087-3.547-4.233-9.855-4.789-14.087-1.241-24.144 20.234-44.714 44.135-61.141 71.038-12.802 20.966-18.66 44.782-16.494 67.062 2.417 24.868 14.341 45.83 34.561 60.677l4.33 3.114 28.599 85.589-78.071 99.165c-3.317 4.213-2.72 10.293 1.353 13.781l39.217 33.585c1.819 1.558 4.128 2.404 6.504 2.404.299 0 .599-.014.898-.04 2.686-.242 5.159-1.559 6.86-3.65l84.672-104.115-16.876 96.075c-.511 2.911.291 5.898 2.191 8.161s4.704 3.569 7.658 3.569h59.789c4.783 0 8.896-3.388 9.814-8.082l30.393-155.492c3.34-17.088-.974-34.694-11.833-48.304l-21.096-26.436c.593.03 1.186.068 1.776.068 7.537 0 14.822-2.448 20.943-7.113 1.169-.891 2.263-1.851 3.295-2.861 5.845 10.605 17.231 17.752 30.208 17.873.111.001-.11 0 0 0 9.39 0 18.338-3.684 24.926-10.396 6.647-6.772 10.163-15.72 9.899-25.193-1.234-44.276-6.734-88.568-16.34-131.839 2.549-.215 5.112-.585 7.675-1.162l8.211-1.849c14.668-3.302 27.172-12.118 35.209-24.825 8.039-12.708 10.647-27.784 7.345-42.452zm-203.21 340.885-83.693 102.911-24.138-20.671 75.468-95.864c2.083-2.646 2.694-6.161 1.627-9.354l-21.521-64.406 53.11 38.196 5.346 21.127c2.471 9.759.154 20.25-6.199 28.061zm83.365-40.232-28.813 147.41h-39.645l25.565-145.545c.664-3.781-.895-7.607-4.01-9.849l-109.047-78.424c-32.078-23.553-31.784-62.519-17.527-92.335l94.658 57.799 70.981 88.95c7.193 9.015 10.05 20.676 7.838 31.994zm-59.811-129.187c5.07-7.49 10.789-14.453 17.116-20.845-.652 12.837-1.696 25.647-3.128 38.374zm113.385 41.844c-2.792 2.845-6.584 4.406-10.563 4.406-.046 0 .047.001 0 0-7.924-.073-14.374-6.338-14.595-14.262-.371-13.272-1.162-26.713-2.352-39.946-.007-.082-.025-.159-.034-.24 2.182-34.148 1.863-68.452-.979-102.564 4.698 3.198 9.867 5.695 15.338 7.364 10.254 44.107 16.104 89.371 17.365 134.616.111 3.992-1.373 7.766-4.18 10.626zm42.026-181.55c-5.182 8.192-13.243 13.876-22.699 16.005l-8.211 1.849c-19.521 4.395-38.978-7.913-43.372-27.434s7.912-38.978 27.432-43.372l8.212-1.848c2.673-.602 5.367-.899 8.041-.899 6.788 0 13.45 1.916 19.327 5.633 8.191 5.182 13.875 13.242 16.004 22.699 2.128 9.456.447 19.175-4.734 27.367z"/><path d="m108.17 104.37c1.049.351 2.115.517 3.164.517 4.187 0 8.088-2.65 9.485-6.84 1.514-4.543 5.13-8.158 9.671-9.672 10.483-3.495 18.827-11.839 22.321-22.321 1.514-4.542 5.129-8.158 9.671-9.671 5.24-1.746 8.072-7.409 6.326-12.648-1.746-5.24-7.408-8.072-12.648-6.326-10.483 3.493-18.828 11.837-22.322 22.321-1.514 4.542-5.13 8.157-9.672 9.672-10.481 3.494-18.826 11.838-22.32 22.319-1.747 5.24 1.085 10.903 6.324 12.649z"/><path d="m106.497 404.343c10.482-3.494 18.826-11.838 22.32-22.32 1.514-4.543 5.13-8.158 9.672-9.672 5.24-1.747 8.071-7.41 6.325-12.649s-7.41-8.069-12.649-6.325c-10.482 3.494-18.827 11.839-22.321 22.321-1.514 4.542-5.13 8.158-9.672 9.673-10.482 3.494-18.826 11.838-22.32 22.32-1.747 5.239 1.085 10.902 6.325 12.649 1.049.35 2.115.516 3.164.516 4.187 0 8.089-2.65 9.485-6.841 1.513-4.543 5.129-8.158 9.671-9.672z"/><circle cx="231.941" cy="57.233" r="10"/></g></g></svg>